{"title":"A Real Young Girl (1976) DVD RIP Uncut","uid":9309931,"size":1221291307,"categoryP":"video","categoryS":"movies","magnet":"?xt=urn:btih:6993f00d7ea0c79335d20f8d9b07dbda5315b73c&amp;dn=A+Real+Young+Girl+%281976%29+DVD+RIP+Uncut&amp;tr=udp%3A%2F%2Ftracker.openbittorrent.com%3A80&amp;tr=udp%3A%2F%2Fopen.demonii.com%3A1337&amp;tr=udp%3A%2F%2Ftracker.coppersurfer.tk%3A6969&amp;tr=udp%3A%2F%2Fexodus.desync.com%3A6969","seeders":0,"leechers":0,"uploader":null,"files":-1,"time":1386390936,"description":"Storyline\n\nAugust, 1963; Alice, 14, an only child, and physically well developed, is home for vacation. She's moody, silent, keeps a diary, and explores tactile sensations with broken eggs, candle wax, ear wax, vomit, urine, blood, and, perhaps, if the summer goes in one very possible direction, semen. Without her underpants, she walks about, rides her bike, and sits on the shore as the tide comes in. She drifts to her father's sawmill and makes eyes at Jim, a 20-something hand with a lean body and a model's face. What will Jim do, and does Alice want to do more than stare and fantasize? Meanwhile, pop music fills the air and the TV screen, and Alice's parents have their own drama.\n\n &lt;a href=&quot;\nhttp://www.imdb.com/title/tt0135024/&quot; rel=&quot;nofollow&quot; target=&quot;_NEW&quot;&gt;\nhttp://www.imdb.com/title/tt0135024/&lt;/a&gt;\n\n\n\n\nAlthough she is playing a 14-year-old, Charlotte Alexandra was actually 20 at the \n\n\ntime of filming. \n\n &lt;a href=&quot;\nhttp://postimg.org/image/g0jah4j0v/&quot; rel=&quot;nofollow&quot; target=&quot;_NEW&quot;&gt;\nhttp://postimg.org/image/g0jah4j0v/&lt;/a&gt;\n &lt;a href=&quot;\nhttp://postimg.org/image/nqlh8ivyn/&quot; rel=&quot;nofollow&quot; target=&quot;_NEW&quot;&gt;\nhttp://postimg.org/image/nqlh8ivyn/&lt;/a&gt;\n &lt;a href=&quot;\nhttp://postimg.org/image/3xdytk7yn/&quot; rel=&quot;nofollow&quot; target=&quot;_NEW&quot;&gt;\nhttp://postimg.org/image/3xdytk7yn/&lt;/a&gt;\n\n\n\n\nYes folks it is fine to download the actor playing here was 20 when filming\n\n\nENGLISH SUBTITLES INCLUDED\n\n\nFormat                                   : MPEG-4\nFormat profile                           : Base Media / Version 2\nCodec ID                                 : mp42\nFile size                                : 1.10 GiB\nDuration                                 : 1h 29mn\nOverall bit rate mode                    : Variable\nOverall bit rate                         : 1 765 Kbps\nEncoded date                             : UTC 2013-12-06 10:12:56\nTagged date                              : UTC 2013-12-06 11:14:39\nWriting application                      : HandBrake 0.9.9 2013052900\n\nVideo\nID                                       : 1\nFormat                                   : AVC\nFormat/Info                              : Advanced Video Codec\nFormat profile                           : &lt;a class=&quot;__cf_email__&quot; href=&quot;/cdn-cgi/l/email-protection&quot; data-cfemail=&quot;c981a0aea18985fce7fb&quot;&gt;[email&amp;#160;protected]&lt;/a&gt;&lt;script data-cfhash='f9e31' type=&quot;text/javascript&quot;&gt;\n/* &lt;![CDATA[ */!function(){try{var t=&quot;currentScript&quot;in document?document.currentScript:function(){for(var t=document.getElementsByTagName(&quot;script&quot;),e=t.length;e--;)if(t[e].getAttribute(&quot;data-cfhash&quot;))return t[e]}();if(t&amp;&amp;t.previousSibling){var e,r,n,i,c=t.previousSibling,a=c.getAttribute(&quot;data-cfemail&quot;);if(a){for(e=&quot;&quot;,r=parseInt(a.substr(0,2),16),n=2;a.length-n;n+=2)i=parseInt(a.substr(n,2),16)^r,e+=String.fromCharCode(i);e=document.createTextNode(e),c.parentNode.replaceChild(e,c)}t.parentNode.removeChild(t);}}catch(u){}}()/* ]]&gt; */&lt;/script&gt;\nFormat settings, CABAC                   : Yes\nFormat settings, ReFrames                : 4 frames\nCodec ID                                 : avc1\nCodec ID/Info                            : Advanced Video Coding\nDuration                                 : 1h 29mn\nBit rate                                 : 1 599 Kbps\nWidth                                    : 720 pixels\nHeight                                   : 480 pixels\nDisplay aspect ratio                     : 16:9\nFrame rate mode                          : Constant\nFrame rate                               : 29.970 fps\nStandard                                 : NTSC\nColor space                              : YUV\nChroma subsampling                       : 4:2:0\nBit depth                                : 8 bits\nScan type                                : Progressive\nBits/(Pixel*Frame)                       : 0.154\nStream size                              : 1 024 MiB (91%)\nWriting library                          : x264 core 130 r2273 b3065e6\nEncoding settings                        : cabac=1 / ref=3 / deblock=1:0:0 / \nEncoded date                             : UTC 2013-12-06 10:12:56\nTagged date                              : UTC 2013-12-06 11:14:39\nColor primaries                          : BT.601 NTSC\nTransfer characteristics                 : BT.709\nMatrix coefficients                      : BT.601\n\nAudio\nID                                       : 2\nFormat                                   : AAC\nFormat/Info                              : Advanced Audio Codec\nFormat profile                           : LC\nCodec ID                                 : 40\nDuration                                 : 1h 29mn\nBit rate mode                            : Variable\nBit rate                                 : 160 Kbps\nMaximum bit rate                         : 227 Kbps\nChannel(s)                               : 2 channels\nChannel positions                        : Front: L R\nSampling rate                            : 32.0 KHz\nCompression mode                         : Lossy\nStream size                              : 102 MiB (9%)\nEncoded date                             : UTC 2013-12-06 10:12:56\nTagged date                              : UTC 2013-12-06 11:14:38\n\nText\nID                                       : 3\nFormat                                   : mp4s\nCodec ID                                 : E0\nDuration                                 : 1h 26mn\nBit rate mode                            : Variable\nBit rate                                 : 1 923 bps\nMaximum bit rate                         : 4 091 Mbps\nStream size                              : 1.20 MiB (0%)\nLanguage                                 : English\nEncoded date                             : UTC 2013-12-06 10:12:56\nTagged date                              : UTC 2013-12-06 11:14:17","torrent":{"xt":"urn:btih:6993f00d7ea0c79335d20f8d9b07dbda5315b73c","amp;dn":"A+Real+Young+Girl+%281976%29+DVD+RIP+Uncut","amp;tr":["udp%3A%2F%2Ftracker.openbittorrent.com%3A80","udp%3A%2F%2Fopen.demonii.com%3A1337","udp%3A%2F%2Ftracker.coppersurfer.tk%3A6969","udp%3A%2F%2Fexodus.desync.com%3A6969"],"infoHash":"6993f00d7ea0c79335d20f8d9b07dbda5315b73c","infoHashBuffer":{"type":"Buffer","data":[105,147,240,13,126,160,199,147,53,210,15,141,155,7,219,218,83,21,183,60]},"announce":[],"urlList":[]}}